HIERARCHY
ROOT Hips
{
	OFFSET 52.072800 -5.242115 91.629997
	CHANNELS 6 Xposition Yposition Zposition Xrotation Yrotation Zrotation
	JOINT spine
	{
		OFFSET 0.000000 -0.393702 6.846367
		CHANNELS 3 Xrotation Yrotation Zrotation
		JOINT spine1
		{
			OFFSET 0.000000 -0.000001 9.496208
			CHANNELS 3 Xrotation Yrotation Zrotation
			JOINT spine2
			{
				OFFSET 0.000000 -0.000001 9.099091
				CHANNELS 3 Xrotation Yrotation Zrotation
				JOINT Neck
				{
					OFFSET 0.000000 -1.113784 23.361198
					CHANNELS 3 Xrotation Yrotation Zrotation
					JOINT Head
					{
						OFFSET 0.000000 -0.000001 7.058014
						CHANNELS 3 Xrotation Yrotation Zrotation
						End Site
						{
							OFFSET 0.000000 5.634187 17.084396
						}
					}
				}
				JOINT RightShoulder
				{
					OFFSET -3.831360 0.533490 9.826309
					CHANNELS 3 Xrotation Yrotation Zrotation
					JOINT RightArm
					{
						OFFSET 0.000000 -0.000002 12.888100
						CHANNELS 3 Xrotation Yrotation Zrotation
						JOINT RightArmRoll
						{
							OFFSET 0.000000 -0.000001 6.506165
							CHANNELS 3 Xrotation Yrotation Zrotation
							JOINT RightForeArm
							{
								OFFSET 0.000000 -0.000003 18.950104
								CHANNELS 3 Xrotation Yrotation Zrotation
								JOINT RightForeArmRoll
								{
									OFFSET 0.000000 -0.000001 7.300919
									CHANNELS 3 Xrotation Yrotation Zrotation
									JOINT RightHand
									{
										OFFSET 0.000000 -0.000002 14.651398
										CHANNELS 3 Xrotation Yrotation Zrotation
										End Site
										{
											OFFSET 0.000000 0.000000 0.100006
										}
									}
								}
							}
						}
					}
				}
				JOINT LeftShoulder
				{
					OFFSET 3.831360 0.533490 9.826309
					CHANNELS 3 Xrotation Yrotation Zrotation
					JOINT LeftArm
					{
						OFFSET 0.000000 -0.000002 12.888100
						CHANNELS 3 Xrotation Yrotation Zrotation
						JOINT LeftArmRoll
						{
							OFFSET 0.000000 -0.000001 6.506165
							CHANNELS 3 Xrotation Yrotation Zrotation
							JOINT LeftForeArm
							{
								OFFSET 0.000000 -0.000003 18.950104
								CHANNELS 3 Xrotation Yrotation Zrotation
								JOINT LeftForeArmRoll
								{
									OFFSET 0.000000 -0.000001 7.300919
									CHANNELS 3 Xrotation Yrotation Zrotation
									JOINT LeftHand
									{
										OFFSET 0.000000 -0.000002 14.651398
										CHANNELS 3 Xrotation Yrotation Zrotation
										End Site
										{
											OFFSET 0.000000 0.000000 0.100006
										}
									}
								}
							}
						}
					}
				}
			}
		}
	}
	JOINT RightUpLeg
	{
		OFFSET -6.068371 0.933477 -1.112778
		CHANNELS 3 Xrotation Yrotation Zrotation
		JOINT RightUpLegRoll
		{
			OFFSET 0.000000 -0.000003 17.179604
			CHANNELS 3 Xrotation Yrotation Zrotation
			JOINT RightLeg
			{
				OFFSET 0.000000 0.000003 -21.274300
				CHANNELS 3 Xrotation Yrotation Zrotation
				JOINT RightLegRoll
				{
					OFFSET 0.000000 -0.000003 21.343903
					CHANNELS 3 Xrotation Yrotation Zrotation
					JOINT RightFoot
					{
						OFFSET 0.000000 -0.000003 17.765198
						CHANNELS 3 Xrotation Yrotation Zrotation
						JOINT RightToeBase
						{
							OFFSET 0.000000 -0.000002 14.850792
							CHANNELS 3 Xrotation Yrotation Zrotation
							End Site
							{
								OFFSET 0.006294 0.829004 7.192139
							}
						}
					}
				}
			}
		}
	}
	JOINT LeftUpLeg
	{
		OFFSET 6.068371 0.933477 -1.112778
		CHANNELS 3 Xrotation Yrotation Zrotation
		JOINT LeftUpLegRoll
		{
			OFFSET 0.000000 -0.000003 17.179703
			CHANNELS 3 Xrotation Yrotation Zrotation
			JOINT LeftLeg
			{
				OFFSET 0.000000 -0.000003 21.274208
				CHANNELS 3 Xrotation Yrotation Zrotation
				JOINT LeftLegRoll
				{
					OFFSET 0.000000 -0.000003 21.541199
					CHANNELS 3 Xrotation Yrotation Zrotation
					JOINT LeftFoot
					{
						OFFSET 0.000000 -0.000003 17.567902
						CHANNELS 3 Xrotation Yrotation Zrotation
						JOINT LeftToeBase
						{
							OFFSET 0.000000 -0.000003 14.850800
							CHANNELS 3 Xrotation Yrotation Zrotation
							End Site
							{
								OFFSET -0.028210 0.829004 7.192139
							}
						}
					}
				}
			}
		}
	}
}
MOTION
Frames: 9
Frame Time: 0.041667
51.210499 -6.276866 91.435097 5.404387 2.499335 -0.581108 -4.118156 1.385405 0.386105 -4.245328 2.733042 0.852941 -2.599541 2.743149 0.822957 20.435561 -31.281447 -1.001194 7.095845 21.881134 -3.976880 -26.409384 -11.391510 -35.041603 -131.327339 -207.597220 -71.251359 0.000001 0.000001 -0.000004 23.701849 9.940106 -1.024799 0.000001 0.000011 -3.000000 -5.000233 -7.998934 0.000137 2.063581 56.161019 -2.828369 -21.244410 114.625123 -7.970706 0.000001 -0.000000 0.000004 0.958203 4.331448 0.112384 -0.000005 -0.000011 3.004922 -5.000244 7.998742 -0.000175 -7.943057 -180.168369 -2.248468 -179.999991 0.000005 -0.869000 175.581105 -1.766741 -0.184505 0.000002 0.000000 0.040720 69.070179 6.886650 2.142986 25.456851 -7.355619 -0.000003 -5.268923 171.038401 -1.660302 -0.000005 -0.000004 -0.972210 -5.465643 2.266976 0.238882 -0.000002 -0.000004 -0.070839 69.415001 -6.868213 -2.160384 25.456960 7.355615 -0.000011 
51.201698 -6.279119 91.433411 5.404830 2.483214 -0.583047 -4.120355 1.389521 0.386430 -4.249748 2.740127 0.854607 -2.603962 2.750252 0.823794 20.407164 -31.191541 -0.992550 7.162364 21.826445 -3.965614 -26.412164 -11.302277 -35.057438 -131.235132 -207.742826 -71.219004 0.000001 -0.000000 -0.000004 23.735338 9.930789 -1.026256 -0.000001 0.000012 -3.000001 -5.000235 -7.998934 0.000137 1.939250 56.166124 -2.679756 -21.307047 114.631215 -7.923720 -0.000001 -0.000000 0.000003 0.948466 4.311273 0.112313 -0.000006 -0.000012 3.004920 -5.000241 7.998742 -0.000173 -7.953743 -180.157482 -2.245699 -179.999991 0.000005 -0.869000 175.568920 -1.764710 -0.184726 0.000002 -0.000000 0.040703 69.070267 6.886657 2.142880 25.456856 -7.355620 -0.000003 -5.251461 171.050121 -1.657828 -0.000005 -0.000005 -0.972310 -5.436418 2.269208 0.237515 -0.000002 -0.000004 -0.070105 69.401634 -6.868371 -2.160444 25.456960 7.355614 -0.000010 
51.195000 -6.282104 91.435806 5.405245 2.467482 -0.584767 -4.122472 1.393527 0.386799 -4.253998 2.747132 0.856297 -2.608212 2.757267 0.824705 20.380979 -31.103616 -0.982596 7.225090 21.774203 -3.953276 -26.414160 -11.215746 -35.071567 -131.145547 -207.881916 -71.187503 0.000002 -0.000000 -0.000004 23.764448 9.922726 -1.027694 0.000000 0.000012 -3.000000 -5.000233 -7.998932 0.000137 1.817254 56.170267 -2.534018 -21.367212 114.638032 -7.877827 0.000001 0.000000 0.000005 0.940068 4.292365 0.112236 -0.000003 -0.000013 3.004919 -5.000241 7.998745 -0.000173 -7.963458 -180.146581 -2.242864 -179.999991 0.000005 -0.869000 175.557841 -1.762695 -0.184913 0.000002 0.000000 0.040686 69.070384 6.886663 2.142774 25.456849 -7.355619 -0.000003 -5.234485 171.061815 -1.655169 -0.000005 -0.000005 -0.972408 -5.407902 2.271087 0.236162 -0.000002 -0.000004 -0.069372 69.388486 -6.868571 -2.160593 25.456964 7.355613 -0.000010 
51.186501 -6.284954 91.434906 5.405654 2.452179 -0.586228 -4.124510 1.397422 0.387218 -4.258077 2.754049 0.857998 -2.612281 2.764198 0.825696 20.357381 -31.018273 -0.971244 7.283583 21.725012 -3.939814 -26.415174 -11.132132 -35.083536 -131.058681 -208.014176 -71.155545 0.000001 -0.000001 -0.000003 23.789393 9.916164 -1.029086 0.000001 0.000012 -2.999999 -5.000233 -7.998932 0.000137 1.698010 56.173368 -2.391688 -21.424394 114.645463 -7.833202 0.000001 0.000000 0.000006 0.933134 4.275025 0.112157 -0.000003 -0.000013 3.004918 -5.000242 7.998742 -0.000174 -7.971876 -180.135694 -2.239951 -179.999991 0.000005 -0.869000 175.548224 -1.760670 -0.184055 0.000002 -0.000000 0.040669 69.070384 6.886662 2.142875 25.456854 -7.355619 -0.000003 -5.218079 171.073535 -1.652286 -0.000005 -0.000004 -0.972505 -5.380195 2.272545 0.234826 -0.000002 -0.000004 -0.068639 69.375645 -6.868746 -2.160721 25.456960 7.355613 -0.000010 
51.180599 -6.287957 91.439598 5.406076 2.437334 -0.587387 -4.126466 1.401189 0.387692 -4.261977 2.760907 0.859699 -2.616182 2.771075 0.826779 20.336466 -30.936082 -0.958370 7.337394 21.679102 -3.925091 -26.415111 -11.051609 -35.093427 -130.975188 -208.139606 -71.121510 0.000001 -0.000001 -0.000003 23.810499 9.911270 -1.030409 0.000001 0.000012 -3.000000 -5.000233 -7.998934 0.000137 1.581944 56.175212 -2.253288 -21.478116 114.653454 -7.790176 -0.000001 -0.000000 0.000004 0.927792 4.259525 0.112072 -0.000002 -0.000012 3.004912 -5.000242 7.998743 -0.000172 -7.978681 -180.124793 -2.236921 -179.999991 0.000005 -0.869000 175.540438 -1.758663 -0.184140 0.000002 -0.000000 0.040652 69.070493 6.886668 2.142770 25.456853 -7.355619 -0.000002 -5.202329 171.085283 -1.649125 -0.000005 -0.000004 -0.972607 -5.353396 2.273530 0.233509 -0.000002 -0.000004 -0.067906 69.363221 -6.868898 -2.160921 25.456962 7.355615 -0.000011 
51.177399 -6.290125 91.438499 5.406508 2.422966 -0.588199 -4.128343 1.404837 0.388228 -4.265705 2.767714 0.861390 -2.619902 2.777898 0.827957 20.318614 -30.857671 -0.943790 7.386092 21.637180 -3.909071 -26.413991 -10.974359 -35.100933 -130.895371 -208.257864 -71.084941 0.000001 0.000001 -0.000003 23.827890 9.908409 -1.031687 0.000002 0.000012 -3.000001 -5.000233 -7.998934 0.000137 1.469473 56.175697 -2.119343 -21.527846 114.661937 -7.748827 0.000001 -0.000000 0.000004 0.924174 4.246170 0.111983 -0.000005 -0.000011 3.004911 -5.000241 7.998743 -0.000174 -7.983559 -180.114875 -2.233599 -179.999991 0.000005 -0.869000 175.534864 -1.757656 -0.184234 0.000002 -0.000000 0.040635 69.070602 6.886674 2.142663 25.456849 -7.355619 -0.000003 -5.187322 171.097017 -1.645633 -0.000005 -0.000004 -0.972717 -5.327588 2.273975 0.232212 -0.000002 -0.000004 -0.067172 69.351234 -6.869072 -2.161094 25.456959 7.355614 -0.000010 
51.168900 -6.292677 91.437294 5.406951 2.408966 -0.588806 -4.130159 1.408395 0.388850 -4.269275 2.774543 0.863144 -2.623471 2.784743 0.829272 20.303376 -30.783304 -0.926976 7.430524 21.600316 -3.891522 -26.411898 -10.900371 -35.106482 -130.818067 -208.370302 -71.048803 0.000001 0.000001 -0.000004 23.840318 9.907202 -1.032905 0.000002 0.000013 -3.000000 -5.000230 -7.998934 0.000137 1.360584 56.175239 -1.989785 -21.573168 114.671882 -7.710201 0.000001 -0.000000 0.000005 0.921902 4.234545 0.111897 -0.000004 -0.000012 3.004909 -5.000243 7.998744 -0.000176 -7.986927 -180.104971 -2.229982 -179.999991 0.000005 -0.869000 175.531026 -1.756652 -0.184274 0.000002 0.000000 0.040618 69.070711 6.886680 2.142658 25.456854 -7.355619 -0.000003 -5.172862 171.108779 -1.641740 -0.000005 -0.000005 -0.972824 -5.302508 2.273849 0.230921 -0.000003 -0.000004 -0.066418 69.339555 -6.869218 -2.161245 25.456957 7.355613 -0.000010 
51.161301 -6.290065 91.436691 5.407377 2.395196 -0.589359 -4.131917 1.411912 0.389577 -4.272693 2.781390 0.865024 -2.626880 2.791609 0.830737 20.289591 -30.712584 -0.908111 7.471876 21.569048 -3.872467 -26.409136 -10.829520 -35.110775 -130.742224 -208.477919 -71.013777 0.000001 0.000000 -0.000003 23.846832 9.907172 -1.034155 0.000000 0.000012 -3.000000 -5.000232 -7.998934 0.000137 1.254799 56.174348 -1.863969 -21.617322 114.680611 -7.671588 -0.000000 0.000000 0.000005 0.920567 4.224037 0.111815 -0.000005 -0.000013 3.004909 -5.000243 7.998742 -0.000171 -7.989424 -180.094084 -2.226106 -179.999991 0.000005 -0.869000 175.528266 -1.755638 -0.184279 0.000002 -0.000000 0.040601 69.070800 6.886652 2.142647 25.456849 -7.355619 -0.000003 -5.158720 171.119530 -1.637333 -0.000005 -0.000004 -0.972918 -5.277866 2.273212 0.229624 -0.000002 -0.000003 -0.065633 69.328073 -6.869337 -2.161378 25.456957 7.355614 -0.000011 
51.157299 -6.293658 91.433800 5.407764 2.381684 -0.589831 -4.133613 1.415371 0.390389 -4.275962 2.788240 0.867014 -2.630150 2.798485 0.832336 20.277607 -30.644976 -0.887173 7.510099 21.542289 -3.852035 -26.405781 -10.761718 -35.113610 -130.667953 -208.580426 -70.981546 0.000002 0.000002 -0.000003 23.847737 9.908304 -1.035457 -0.000000 0.000012 -3.000001 -5.000233 -7.998935 0.000137 1.151833 56.173054 -1.741562 -21.658101 114.690952 -7.635251 0.000000 0.000000 0.000007 0.920225 4.214580 0.111736 -0.000006 -0.000013 3.004909 -5.000243 7.998744 -0.000172 -7.991132 -180.084180 -2.221783 -179.999991 0.000005 -0.869000 175.526409 -1.754639 -0.184258 0.000002 -0.000000 0.040584 69.070814 6.886686 2.142552 25.456858 -7.355620 -0.000003 -5.144890 171.131305 -1.632681 -0.000005 -0.000005 -0.973001 -5.253692 2.272105 0.228327 -0.000002 -0.000004 -0.064827 69.316708 -6.869491 -2.161512 25.456960 7.355614 -0.000011 
